# Blender 4.4.3
# www.blender.org
o poca
v 0.000000 0.607161 0.000000
v 0.000000 0.564521 -0.342020
v 0.000000 0.441747 -0.642788
v 0.388656 -0.353515 -0.787392
v 0.000000 0.122775 -0.984808
v 0.000000 -0.122775 -0.984808
v 0.000000 -0.353515 -0.866025
v 0.408390 0.564521 -0.213246
v 0.643539 0.441747 -0.400772
v 0.254308 0.564521 -0.362034
v 0.910942 0.122775 -0.614018
v 0.910942 -0.122775 -0.614018
v 0.677086 -0.353515 -0.539958
v 0.474433 0.564521 0.076107
v 0.767659 0.441747 0.143034
v 0.371883 0.441747 -0.606180
v 1.101104 0.122775 0.219140
v 1.101104 -0.122775 0.219140
v 0.985300 -0.353515 0.192709
v 0.289385 0.564521 0.308150
v 0.419883 0.441747 0.579132
v 0.505584 0.122775 -0.883813
v 0.568280 0.122775 0.887281
v 0.568280 -0.122775 0.887281
v 0.516742 -0.353515 0.780262
v 0.000000 -0.353515 0.780262
v 0.818065 -0.356692 -0.849009
v 0.000000 -0.122775 0.887281
v 0.000000 0.122775 0.887281
v 0.505584 -0.122775 -0.883813
v 0.000000 0.441747 0.579132
v 0.000000 0.564521 0.308150
v 0.426543 -0.356692 -1.135379
v 0.531694 -0.356692 -0.457487
v 0.140172 -0.356692 -0.743857
v -0.388656 -0.353515 -0.787392
v -0.408390 0.564521 -0.213246
v -0.643539 0.441747 -0.400772
v -0.254308 0.564521 -0.362034
v -0.910942 0.122775 -0.614018
v -0.910942 -0.122775 -0.614018
v -0.677086 -0.353515 -0.539958
v -0.474433 0.564521 0.076107
v -0.767659 0.441747 0.143034
v -0.371883 0.441747 -0.606180
v -1.101104 0.122775 0.219140
v -1.101104 -0.122775 0.219140
v -0.985300 -0.353515 0.192709
v -0.289385 0.564521 0.308150
v -0.419883 0.441747 0.579132
v -0.505584 0.122775 -0.883813
v -0.568280 0.122775 0.887281
v -0.568280 -0.122775 0.887281
v -0.516742 -0.353515 0.780262
v -0.818065 -0.356692 -0.849009
v -0.505584 -0.122775 -0.883813
v -0.426543 -0.356692 -1.135379
v -0.531694 -0.356692 -0.457487
v -0.140172 -0.356692 -0.743857
vn -0.0000 1.0000 0.0085
vn -0.0000 0.9701 -0.2428
vn -0.0000 0.8261 -0.5635
vn 0.1786 -0.8825 -0.4352
vn -0.0000 0.3985 -0.9172
vn -0.0000 -0.2381 -0.9712
vn -0.0000 -0.8741 -0.4857
vn 0.2215 0.9655 -0.1369
vn 0.4722 0.8267 -0.3060
vn 0.0919 0.9607 -0.2619
vn 0.7554 0.3986 -0.5200
vn 0.7836 -0.3270 -0.5283
vn 0.3397 -0.9037 -0.2608
vn 0.2623 0.9631 0.0594
vn 0.5456 0.8288 0.1245
vn 0.2073 0.8262 -0.5238
vn 0.8935 0.4000 0.2039
vn 0.9342 -0.2930 0.2035
vn 0.4922 -0.8651 0.0969
vn 0.1213 0.9616 0.2463
vn 0.2428 0.8288 0.5042
vn 0.3488 0.4015 -0.8468
vn 0.3977 0.4000 0.8258
vn 0.4221 -0.2316 0.8765
vn 0.2307 -0.8469 0.4791
vn -0.0000 -0.8900 0.4559
vn -0.0000 1.0000 -0.0000
vn -0.0000 -0.2204 0.9754
vn -0.0000 0.4004 0.9163
vn 0.3859 -0.2909 -0.8755
vn -0.0000 0.8244 0.5660
vn -0.0000 0.9620 0.2729
vn -0.1786 -0.8825 -0.4352
vn -0.2215 0.9655 -0.1369
vn -0.4722 0.8267 -0.3060
vn -0.0919 0.9607 -0.2619
vn -0.7554 0.3986 -0.5200
vn -0.7836 -0.3270 -0.5283
vn -0.3397 -0.9037 -0.2608
vn -0.2623 0.9631 0.0594
vn -0.5456 0.8288 0.1245
vn -0.2073 0.8262 -0.5238
vn -0.8935 0.4000 0.2039
vn -0.9342 -0.2930 0.2035
vn -0.4922 -0.8651 0.0969
vn -0.1213 0.9616 0.2463
vn -0.2428 0.8288 0.5042
vn -0.3488 0.4015 -0.8468
vn -0.3977 0.4000 0.8258
vn -0.4221 -0.2316 0.8765
vn -0.2307 -0.8469 0.4791
vn -0.3859 -0.2909 -0.8755
vt 0.845476 0.682104
vt 0.847706 0.760696
vt 0.735888 0.771398
vt 0.730026 0.686470
vt 0.859792 0.883374
vt 0.867738 0.959306
vt 0.818634 0.977472
vt 0.780447 0.901654
vt 0.859539 0.598572
vt 0.766428 0.592445
vt 0.298417 0.783350
vt 0.096187 0.650585
vt 0.194319 0.454777
vt 0.371762 0.490637
vt 0.019240 0.971947
vt 0.015233 0.843515
vt 0.169226 0.919934
vt 0.113520 0.976302
vt 0.589662 0.826924
vt 0.434088 0.809015
vt 0.483791 0.508786
vt 0.607846 0.522577
vt 0.194676 0.259271
vt 0.380738 0.230188
vt 0.966279 0.675706
vt 0.969161 0.760448
vt 0.191692 0.812447
vt 0.000141 0.534371
vt 0.061336 0.420988
vt 0.114525 0.118750
vt 0.330535 0.023328
vt 0.122302 0.727341
vt 0.497885 0.227038
vt 0.067183 0.296160
vt 0.635031 0.225998
vt 0.946852 0.895945
vt 0.926894 0.978028
vt 0.459491 0.990118
vt 0.300383 0.990118
vt 0.300383 0.831010
vt 0.459491 0.831010
vt 0.000141 0.193312
vt 0.484851 0.000183
vt 0.634966 0.000141
vt 0.955239 0.592445
vt 0.015233 0.727341
vt 0.687233 0.397655
vt 0.650738 0.310901
vt 0.706219 0.241330
vt 0.767406 0.241330
vt 0.767406 0.436264
vt 0.721386 0.426953
s 1
f 30/1/30 22/2/22 11/3/11 12/4/12
f 16/5/16 10/6/10 8/7/8 9/8/9
f 4/9/4 30/1/30 12/4/12 13/10/13
f 11/11/11 9/12/9 15/13/15 17/14/17
f 2/15/2 1/16/1 8/17/8 10/18/10
f 13/19/13 12/20/12 18/21/18 19/22/19
f 15/13/15 21/23/21 23/24/23 17/14/17
f 6/25/6 5/26/5 22/2/22 30/1/30
f 8/17/8 1/16/1 14/27/14
f 12/20/12 11/11/11 17/14/17 18/21/18
f 9/12/9 8/28/8 14/29/14 15/13/15
f 21/23/21 31/30/31 29/31/29 23/24/23
f 14/27/14 1/16/1 20/32/20
f 18/21/18 17/14/17 23/24/23 24/33/24
f 15/13/15 14/29/14 20/34/20 21/23/21
f 19/22/19 18/21/18 24/33/24 25/35/25
f 3/36/3 2/37/2 10/6/10 16/5/16
f 35/38/27 34/39/27 27/40/27 33/41/27
f 21/23/21 20/34/20 32/42/32 31/30/31
f 5/26/5 3/36/3 16/5/16 22/2/22
f 24/33/24 23/24/23 29/31/29 28/43/28
f 25/35/25 24/33/24 28/43/28 26/44/26
f 7/45/7 6/25/6 30/1/30 4/9/4
f 20/32/20 1/16/1 32/46/32
f 13/47/13 19/48/19 25/49/25 26/50/26 7/51/7 4/52/4
f 22/2/22 16/5/16 9/8/9 11/3/11
f 56/1/52 41/4/38 40/3/37 51/2/48
f 45/5/42 38/8/35 37/7/34 39/6/36
f 36/9/33 42/10/39 41/4/38 56/1/52
f 40/11/37 46/14/43 44/13/41 38/12/35
f 2/15/2 39/18/36 37/17/34 1/16/1
f 42/19/39 48/22/45 47/21/44 41/20/38
f 44/13/41 46/14/43 52/24/49 50/23/47
f 6/25/6 56/1/52 51/2/48 5/26/5
f 37/17/34 43/27/40 1/16/1
f 41/20/38 47/21/44 46/14/43 40/11/37
f 38/12/35 44/13/41 43/29/40 37/28/34
f 50/23/47 52/24/49 29/31/29 31/30/31
f 43/27/40 49/32/46 1/16/1
f 47/21/44 53/33/50 52/24/49 46/14/43
f 44/13/41 50/23/47 49/34/46 43/29/40
f 48/22/45 54/35/51 53/33/50 47/21/44
f 3/36/3 45/5/42 39/6/36 2/37/2
f 59/38/27 57/41/27 55/40/27 58/39/27
f 50/23/47 31/30/31 32/42/32 49/34/46
f 5/26/5 51/2/48 45/5/42 3/36/3
f 53/33/50 28/43/28 29/31/29 52/24/49
f 54/35/51 26/44/26 28/43/28 53/33/50
f 7/45/7 36/9/33 56/1/52 6/25/6
f 49/32/46 32/46/32 1/16/1
f 42/47/39 36/52/33 7/51/7 26/50/26 54/49/51 48/48/45
f 51/2/48 40/3/37 38/8/35 45/5/42
o tie
v -0.098891 -0.403099 -1.009631
v 0.098891 -0.403099 -1.009631
v -0.098891 -0.037607 -1.009631
v 0.098891 -0.037607 -1.009631
vn -0.0000 -0.0000 1.0000
vt 0.827832 0.022752
vt 0.950367 0.022752
vt 0.950367 0.261057
vt 0.827832 0.261057
s 0
f 60/53/53 61/54/53 63/55/53 62/56/53
